# AST/ASF file generated using VICON BodyLanguage
# -----------------------------------------------
:version 1.10
:name VICON
:units
  mass 1.0
  length 0.45
  angle deg
:documentation
   .ast/.asf automatically generated from VICON data using
   VICON BodyBuilder and BodyLanguage model FoxedUp or BRILLIANT.MOD
:root
   order TX TY TZ RX RY RZ
   axis XYZ
   position 0 0 0  
   orientation 0 0 0 
:bonedata
  begin
     id 1 
     name lhipjoint
     direction 0.623529 -0.717805 0.309788 
     length 2.23224 
     axis 0 0 0  XYZ
  end
  begin
     id 2 
     name lfemur
     direction 0.34202 -0.939693 0  
     length 7.11402  
     axis 0 0 20  XYZ
    dof rx ry rz
    limits (-160.0 20.0)
           (-70.0 70.0)
           (-60.0 70.0)
  end
  begin
     id 3 
     name ltibia
     direction 0.34202 -0.939693 0   
     length 6.78496   
     axis 0 0 20   XYZ
    dof rx
    limits (-10.0 170.0)
  end
  begin
     id 4 
     name lfoot
     direction 0.125078 -0.343648 0.930732   
     length 1.84054   
     axis -90 7.62852e-016 20   XYZ
    dof rx rz
    limits (-45.0 90.0)
           (-70.0 20.0)
  end
  begin
     id 5 
     name ltoes
     direction 1.53565e-011 -4.21893e-011 1   
     length 0.916474   
     axis -90 7.62852e-016 20   XYZ
    dof rx
    limits (-90.0 20.0)
  end
  begin
     id 6 
     name rhipjoint
     direction -0.564688 -0.757748 0.327026   
     length 2.11457  
     axis 0 0 0  XYZ 
  end
  begin
     id 7 
     name rfemur
     direction -0.34202 -0.939693 0   
     length 7.14609   
     axis 0 0 -20   XYZ
    dof rx ry rz
    limits (-160.0 20.0)
           (-70.0 70.0)
           (-70.0 60.0)
  end
  begin
     id 8 
     name rtibia
     direction -0.34202 -0.939693 0   
     length 6.78101   
     axis 0 0 -20   XYZ
    dof rx
    limits (-10.0 170.0)
 end
 begin
     id 9 
     name rfoot
     direction -0.0992671 -0.272734 0.956955   
     length 1.96168  
     axis -90 -7.62852e-016 -20   XYZ
    dof rx rz
    limits (-45.0 90.0)
           (-20.0 70.0)
  end
  begin
     id 10 
     name rtoes
     direction -1.5356e-011 -4.21891e-011 1   
     length 0.982933   
     axis -90 -7.62852e-016 -20   XYZ
    dof rx
    limits (-90.0 20.0)
  end
  begin
     id 11 
     name lowerback
     direction -0.00596953 0.998668 0.0512524   
     length 1.87557   
     axis 0 0 0   XYZ
    dof rx ry rz
    limits (-20.0 45.0)
           (-30.0 30.0)
           (-30.0 30.0)
  end
  begin
     id 12 
     name upperback
     direction 0.00584879 0.999652 0.0257308   
     length 1.87883   
     axis 0 0 0   XYZ
    dof rx ry rz
    limits (-20.0 45.0)
           (-30.0 30.0)
           (-30.0 30.0)
  end
  begin
     id 13 
     name thorax
     direction 0.010104 0.999947 0.00178881   
     length 1.87779   
     axis 0 0 0   XYZ
    dof rx ry rz
    limits (-20.0 45.0)
           (-30.0 30.0)
           (-30.0 30.0)
  end
  begin
     id 14 
     name lowerneck
     direction 0.0120771 0.995934 -0.0892773   
     length 1.40897   
     axis 0 0 0   XYZ
    dof rx ry rz
    limits (-20.0 45.0)
           (-30.0 30.0)
           (-30.0 30.0)
  end
  begin
     id 15 
     name upperneck
     direction -0.030568 0.999465 -0.0116366   
     length 1.38661   
     axis 0 0 0   XYZ
    dof rx ry rz
    limits (-20.0 45.0)
           (-30.0 30.0)
           (-30.0 30.0)
  end
  begin
     id 16
     name head
     direction -0.0170715 0.999854 -0.00104426  
     length 1.47052  
     axis 0 0 0   XYZ
    dof rx ry rz
    limits (-20.0 45.0)
           (-30.0 30.0)
           (-30.0 30.0)
  end
  begin
     id 17 
     name lclavicle
     direction 0.977763 0.206143 0.038532  
     length 3.02424  
     axis 0 0 0   XYZ
    dof ry rz
    limits (-20.0 10.0)
           (0.0 20.0)
  end
  begin
     id 18 
     name lhumerus
     direction 1 -4.48965e-011 -2.62654e-027   
     length 4.68382   
     axis 180 -30 -90   XYZ
    dof rx ry rz
    limits (-60.0 90.0)
           (-90.0 90.0)
           (-90.0 90.0)
  end
  begin
     id 19
     name lradius
     direction 1 -4.48973e-011 -1.54954e-027   
     length 2.98124   
     axis 180 -30 -90   XYZ
    dof rx
    limits (-10.0 170.0)
  end
  begin
     id 20
     name lwrist
     direction 1 -4.48959e-011 7.20928e-028   
     length 1.49062   
     axis -5.52449e-016 90 90   XYZ
    dof ry
    limits (-180.0 0.0)
 end
  begin
     id 21 
     name lhand
     direction 1 -4.48971e-011 1.44186e-027   
     length 0.707595   
     axis -9.20027e-016 90 90   XYZ
    dof rx rz
    limits (-90.0 90.0)
           (-45.0 45.0)
  end
  begin
     id 22 
     name lfingers
     direction 1 -4.48985e-011 2.88371e-027   
     length 0.570481   
     axis -1.84005e-015 90 90   XYZ
    dof rx
    limits (0.0 90.0)
  end
  begin
     id 23
     name lthumb
     direction 0.707107 -6.34929e-011 0.707107   
     length 0.819101   
     axis -90 45 2.85299e-015   XYZ
    dof rx rz
    limits (-45.0 45.0)
           (-45.0 45.0)
  end
  begin
     id 24 
     name rclavicle
     direction -0.958661 0.284411 -0.00895327   
     length 3.11921  
     axis 0 0 0   XYZ 
    dof ry rz
    limits (-10.0 20.0)
           (-20.0 0.0)
  end
  begin
     id 25 
     name rhumerus
     direction -1 -4.48963e-011 -4.22193e-027  
     length 4.75876   
     axis 180 30 90   XYZ
    dof rx ry rz
    limits (-90.0 60.0)
           (-90.0 90.0)
           (-90.0 90.0)
  end
  begin
     id 26 
     name rradius
     direction -1 -4.48968e-011 -1.07616e-027   
     length 2.93293   
     axis 180 30 90   XYZ
    dof rx
    limits (-10.0 170.0)
  end
  begin
     id 27 
     name rwrist
     direction -1 -4.48965e-011 7.20928e-028   
     length 1.46647   
     axis -5.52449e-016 -90 -90   XYZ
    dof ry
    limits (-180.0 0.0)
  end
  begin
     id 28
     name rhand
     direction -1 -4.48971e-011 1.44186e-027   
     length 0.831748   
     axis -9.20027e-016 -90 -90   XYZ
    dof rx rz
    limits (-90.0 90.0)
           (-45.0 45.0)
  end
  begin
     id 29
     name rfingers
     direction -1 -4.48961e-011 2.88371e-027   
     length 0.670577   
     axis -1.84005e-015 -90 -90   XYZ
    dof rx
    limits (0.0 90.0)
  end
  begin
     id 30
     name rthumb
     direction -0.707107 -6.34929e-011 0.707107   
     length 0.962818   
     axis -90 -45 -2.85299e-015   XYZ
    dof rx rz
    limits (-45.0 45.0)
           (-45.0 45.0)
  end
:hierarchy
  begin
    root lhipjoint rhipjoint lowerback
    lhipjoint lfemur
    lfemur ltibia
    ltibia lfoot
    lfoot ltoes
    rhipjoint rfemur
    rfemur rtibia
    rtibia rfoot
    rfoot rtoes
    lowerback upperback
    upperback thorax
    thorax lowerneck lclavicle rclavicle
    lowerneck upperneck
    upperneck head
    lclavicle lhumerus
    lhumerus lradius
    lradius lwrist
    lwrist lhand lthumb
    lhand lfingers
    rclavicle rhumerus
    rhumerus rradius
    rradius rwrist
    rwrist rhand rthumb
    rhand rfingers
  end

#!OML:ASF E:\id_vita\Project 1\Capture day 1\Session 1\Female.ASF
:FULLY-SPECIFIED
:DEGREES
219
root -22.4456 12.5588 -4.80275 -39.8084 -87.232 -235.829
lowerback 18.961 5.36348 -1.03886
upperback 3.756 6.60534 0.891508
thorax -6.72642 3.10748 -0.0584841
lowerneck -2.68448 -6.53425 -7.12781
upperneck -32.2222 -11.1201 1.66505
head -9.34069 -5.58723 2.68209
rclavicle 5.08889e-014 -1.03368e-014
rhumerus 79.1963 -7.37129 -64.7656
rradius 17.9131
rwrist 17.129
rhand -38.7642 0.0288552
rfingers 7.12502
rthumb -11.7763 -29.6201
lclavicle 5.08889e-014 -1.03368e-014
lhumerus 20.5158 -25.3389 119.039
lradius 54.7056
lwrist 4.09184
lhand -27.0542 32.9749
lfingers 7.12502
lthumb -0.472453 62.9541
rfemur -130.228 -6.22802 48.6599
rtibia 77.7546
rfoot -29.7695 -8.17866
rtoes -19.5807
lfemur -136.032 -0.985044 -45.905
ltibia 78.1185
lfoot -18.1898 -26.7479
ltoes 25.3064
220
root -22.4562 12.5484 -4.80206 -42.4423 -87.1351 -233.021
lowerback 19.1025 5.26886 -1.13267
upperback 3.62213 6.47275 0.917263
thorax -6.95811 3.04629 0.034027
lowerneck -2.86979 -6.39927 -7.43214
upperneck -31.832 -10.8799 1.65409
head -9.15863 -5.43825 2.68327
rclavicle -6.36111e-015 3.26007e-014
rhumerus 78.18 -6.68082 -61.9474
rradius 19.4464
rwrist 13.2763
rhand -39.3588 0.506128
rfingers 7.12502
rthumb -12.3496 -29.1091
lclavicle -6.36111e-015 3.26007e-014
lhumerus 21.4145 -25.5091 118.351
lradius 54.5881
lwrist 5.10397
lhand -26.7172 32.9401
lfingers 7.12502
lthumb -0.146931 62.9198
rfemur -130.444 -6.16007 48.5465
rtibia 77.8999
rfoot -29.7349 -8.11077
rtoes -19.4522
lfemur -136.147 -1.07407 -46.1285
ltibia 78.2445
lfoot -18.3716 -26.5978
ltoes 25.5915
221
root -22.4712 12.5363 -4.79385 -46.9932 -86.861 -228.292
lowerback 19.2506 5.15374 -1.28112
upperback 3.47886 6.29583 0.830838
thorax -7.19505 2.96573 0.0487102
lowerneck -2.82169 -6.2517 -7.75936
upperneck -31.657 -10.6237 1.76927
head -9.08848 -5.28191 2.75375
rclavicle 2.29e-013 7.196e-014
rhumerus 77.3687 -6.10604 -60.2627
rradius 20.9227
rwrist 10.4619
rhand -39.3787 0.856363
rfingers 7.12502
rthumb -12.3688 -28.7577
lclavicle 2.29e-013 7.196e-014
lhumerus 21.5207 -25.0154 118.459
lradius 55.5036
lwrist 4.91552
lhand -26.4398 33.1928
lfingers 7.12502
lthumb 0.120972 63.1725
rfemur -130.692 -6.18876 48.2449
rtibia 78.0329
rfoot -29.6363 -8.19103
rtoes -19.9262
lfemur -136.182 -1.23522 -46.5628
ltibia 78.3841
lfoot -18.8003 -26.3743
ltoes 25.5822
222
root -22.4804 12.5111 -4.79483 -54.0099 -86.8836 -221.043
lowerback 19.2328 5.08949 -1.40807
upperback 3.3969 6.18331 0.687636
thorax -7.26913 2.91597 -0.00782136
lowerneck -3.13726 -6.14296 -7.83847
upperneck -31.4063 -10.4258 1.74198
head -8.9484 -5.18363 2.7186
rclavicle 2.22639e-014 1.90833e-014
rhumerus 76.9312 -5.5578 -59.4859
rradius 22.0742
rwrist 8.30803
rhand -39.1464 1.33913
rfingers 7.12502
rthumb -12.1448 -28.2884
lclavicle 2.22639e-014 1.90833e-014
lhumerus 23.2073 -24.6343 118.153
lradius 53.3591
lwrist 4.69827
lhand -27.2372 32.5059
lfingers 7.12502
lthumb -0.64923 62.4847
rfemur -130.784 -5.82487 47.8407
rtibia 78.1794
rfoot -29.5765 -8.49213
rtoes -20.3746
lfemur -136.632 -1.06884 -46.8919
ltibia 78.6218
lfoot -19.0512 -26.3143
ltoes 25.5873
223
root -22.492 12.5046 -4.79834 -57.1231 -86.9024 -218.131
lowerback 19.8023 5.02428 -1.43015
upperback 3.31127 6.08498 0.723779
thorax -7.67155 2.86367 0.0184494
lowerneck -3.24903 -6.02882 -8.19731
upperneck -31.0783 -10.2055 1.82302
head -8.79723 -5.04502 2.76999
rclavicle 1.36764e-013 6.24184e-014
rhumerus 76.2025 -4.95453 -58.2136
rradius 23.3731
rwrist 5.81694
rhand -38.762 1.56431
rfingers 7.12502
rthumb -11.7742 -28.0847
lclavicle 1.36764e-013 6.24184e-014
lhumerus 23.9746 -24.4756 117.687
lradius 53.3899
lwrist 4.68386
lhand -27.2253 33.2342
lfingers 7.12502
lthumb -0.637728 63.2129
rfemur -130.454 -5.85371 47.4011
rtibia 78.2772
rfoot -29.5533 -8.7849
rtoes -20.4207
lfemur -136.503 -0.871385 -47.0607
ltibia 78.7809
lfoot -19.5467 -26.1644
ltoes 25.4467
224
root -22.4902 12.4931 -4.79658 -59.9622 -86.9185 -214.957
lowerback 19.515 4.98479 -1.50604
upperback 3.13462 6.04354 0.78979
thorax -7.72466 2.85297 0.155271
lowerneck -3.46793 -5.94204 -8.13437
upperneck -30.6319 -10.1259 1.42543
head -8.63318 -4.98293 2.59147
rclavicle 5.725e-014 2.14687e-014
rhumerus 75.3703 -4.38363 -56.8928
rradius 24.748
rwrist 3.40492
rhand -37.7696 0.615041
rfingers 7.12502
rthumb -10.817 -29.0864
lclavicle 5.725e-014 2.14687e-014
lhumerus 23.921 -23.8083 118.009
lradius 54.56
lwrist 3.86609
lhand -26.732 33.997
lfingers 7.12502
lthumb -0.161291 63.9767
rfemur -130.773 -5.53335 47.7076
rtibia 78.3159
rfoot -29.6748 -8.38066
rtoes -19.9581
lfemur -136.853 -0.962812 -47.2713
ltibia 78.8355
lfoot -19.9595 -26.0793
ltoes 25.3086
